<?xml version="1.0" standalone="no"?>
<!DOCTYPE svg PUBLIC "-//W3C//DTD SVG 20010904//EN"
 "http://www.w3.org/TR/2001/REC-SVG-20010904/DTD/svg10.dtd">
<svg version="1.0" xmlns="http://www.w3.org/2000/svg"
 width="700.000000pt" height="700.000000pt" viewBox="0 0 700.000000 700.000000"
 preserveAspectRatio="xMidYMid meet">
<metadata>
Created by potrace 1.14, written by Peter Selinger 2001-2017
</metadata>
<g transform="translate(0.000000,700.000000) scale(0.100000,-0.100000)"
fill="#000000" stroke="none">
<path d="M3211 5965 c-22 -58 -1575 -4047 -1628 -4180 -51 -130 -157 -334
-210 -407 -102 -138 -215 -233 -327 -274 l-61 -22 -3 -71 -3 -71 43 7 c56 10
1239 10 1341 0 l77 -8 0 76 0 75 -47 0 c-69 0 -218 26 -287 50 -86 29 -137 62
-194 125 -91 99 -123 239 -102 442 22 217 76 401 248 851 l115 302 754 -2 755
-3 234 -639 c128 -352 243 -678 255 -725 28 -112 24 -222 -11 -271 -46 -64
-194 -114 -377 -127 l-93 -6 0 -74 0 -73 58 7 c75 10 2093 10 2200 0 l82 -7 0
70 c0 48 -4 72 -12 74 -108 31 -203 95 -273 183 -25 32 -68 102 -96 156 -28
55 -428 1074 -916 2335 -476 1230 -867 2242 -869 2247 -3 6 -119 10 -319 10
l-315 0 -19 -50z m78 -2036 c182 -498 331 -911 331 -917 0 -9 -174 -12 -689
-12 -380 0 -692 3 -694 8 -7 12 706 1844 713 1835 4 -4 157 -416 339 -914z"/>
</g>
</svg>
